<svg width="43" height="41" viewBox="0 0 43 41" fill="none" xmlns="http://www.w3.org/2000/svg">
<rect x="2" y="1" width="40" height="40" rx="4" fill="url(#paint0_linear_177_8)"/>
<g filter="url(#filter0_d_177_8)">
<path d="M13.3523 29.2642C12.5227 29.2642 11.7756 29.1165 11.1108 28.821C10.4517 28.5199 9.92898 28.0767 9.54261 27.4915C9.16193 26.9062 8.97159 26.1847 8.97159 25.3267C8.97159 24.5881 9.10795 23.9773 9.38068 23.4943C9.65341 23.0114 10.0256 22.625 10.4972 22.3352C10.9688 22.0455 11.5 21.8267 12.0909 21.679C12.6875 21.5256 13.304 21.4148 13.9403 21.3466C14.7074 21.267 15.3295 21.196 15.8068 21.1335C16.2841 21.0653 16.6307 20.9631 16.8466 20.8267C17.0682 20.6847 17.179 20.4659 17.179 20.1705V20.1193C17.179 19.4773 16.9886 18.9801 16.608 18.6278C16.2273 18.2756 15.679 18.0994 14.9631 18.0994C14.2074 18.0994 13.608 18.2642 13.1648 18.5938C12.7273 18.9233 12.4318 19.3125 12.2784 19.7614L9.39773 19.3523C9.625 18.5568 10 17.892 10.5227 17.358C11.0455 16.8182 11.6847 16.4148 12.4403 16.1477C13.196 15.875 14.0313 15.7386 14.946 15.7386C15.5767 15.7386 16.2045 15.8125 16.8295 15.9602C17.4545 16.108 18.0256 16.3523 18.5426 16.6932C19.0597 17.0284 19.4744 17.4858 19.7869 18.0653C20.1051 18.6449 20.2642 19.3693 20.2642 20.2386V29H17.2983V27.2017H17.196C17.0085 27.5653 16.7443 27.9062 16.4034 28.2244C16.0682 28.5369 15.6449 28.7898 15.1335 28.983C14.6278 29.1705 14.0341 29.2642 13.3523 29.2642ZM14.1534 26.9972C14.7727 26.9972 15.3097 26.875 15.7642 26.6307C16.2188 26.3807 16.5682 26.0511 16.8125 25.642C17.0625 25.233 17.1875 24.7869 17.1875 24.304V22.7614C17.0909 22.8409 16.9261 22.9148 16.6932 22.983C16.4659 23.0511 16.2102 23.1108 15.9261 23.1619C15.642 23.2131 15.3608 23.2585 15.0824 23.2983C14.804 23.3381 14.5625 23.3722 14.358 23.4006C13.8977 23.4631 13.4858 23.5653 13.1222 23.7074C12.7585 23.8494 12.4716 24.0483 12.2614 24.304C12.0511 24.554 11.946 24.8778 11.946 25.2756C11.946 25.8438 12.1534 26.2727 12.5682 26.5625C12.983 26.8523 13.5114 26.9972 14.1534 26.9972ZM25.8892 15.9091L28.5312 20.7415L31.2159 15.9091H34.4801L30.5341 22.4545L34.5483 29H31.3011L28.5312 24.2869L25.7869 29H22.5142L26.5028 22.4545L22.6165 15.9091H25.8892Z" fill="#621FE9"/>
</g>
<g filter="url(#filter1_d_177_8)">
<path d="M14 13C15.1667 11 17.5 8 22 8C26.5 8 28.5 11 30 13" stroke="url(#paint1_linear_177_8)" stroke-width="2" stroke-linecap="round" stroke-linejoin="bevel" shape-rendering="crispEdges"/>
</g>
<path d="M19 32.5H26" stroke="url(#paint2_linear_177_8)" stroke-width="2" stroke-linecap="round"/>
<defs>
<filter id="filter0_d_177_8" x="0.971619" y="9.73865" width="41.5767" height="29.5255" filterUnits="userSpaceOnUse" color-interpolation-filters="sRGB">
<feFlood flood-opacity="0" result="BackgroundImageFix"/>
<feColorMatrix in="SourceAlpha" type="matrix" values="0 0 0 0 0 0 0 0 0 0 0 0 0 0 0 0 0 0 127 0" result="hardAlpha"/>
<feOffset dy="2"/>
<feGaussianBlur stdDeviation="4"/>
<feComposite in2="hardAlpha" operator="out"/>
<feColorMatrix type="matrix" values="0 0 0 0 0.137255 0 0 0 0 0.0352941 0 0 0 0 0.345098 0 0 0 0.8 0"/>
<feBlend mode="normal" in2="BackgroundImageFix" result="effect1_dropShadow_177_8"/>
<feBlend mode="normal" in="SourceGraphic" in2="effect1_dropShadow_177_8" result="shape"/>
</filter>
<filter id="filter1_d_177_8" x="4.99982" y="0" width="34.0002" height="23.0001" filterUnits="userSpaceOnUse" color-interpolation-filters="sRGB">
<feFlood flood-opacity="0" result="BackgroundImageFix"/>
<feColorMatrix in="SourceAlpha" type="matrix" values="0 0 0 0 0 0 0 0 0 0 0 0 0 0 0 0 0 0 127 0" result="hardAlpha"/>
<feOffset dy="1"/>
<feGaussianBlur stdDeviation="4"/>
<feComposite in2="hardAlpha" operator="out"/>
<feColorMatrix type="matrix" values="0 0 0 0 0.384315 0 0 0 0 0.121569 0 0 0 0 0.913725 0 0 0 0.81 0"/>
<feBlend mode="normal" in2="BackgroundImageFix" result="effect1_dropShadow_177_8"/>
<feBlend mode="normal" in="SourceGraphic" in2="effect1_dropShadow_177_8" result="shape"/>
</filter>
<linearGradient id="paint0_linear_177_8" x1="4.5" y1="1.5" x2="39.5" y2="41" gradientUnits="userSpaceOnUse">
<stop stop-color="#1B191F"/>
<stop offset="1" stop-color="#1B191F" stop-opacity="0.8"/>
</linearGradient>
<linearGradient id="paint1_linear_177_8" x1="22" y1="8" x2="22" y2="13" gradientUnits="userSpaceOnUse">
<stop stop-color="#621FE9"/>
<stop offset="1" stop-color="#621FE9" stop-opacity="0.34"/>
</linearGradient>
<linearGradient id="paint2_linear_177_8" x1="18.5" y1="32.5" x2="26.5" y2="32.5" gradientUnits="userSpaceOnUse">
<stop stop-color="#621FE9"/>
<stop offset="1" stop-color="#621FE9" stop-opacity="0.41"/>
</linearGradient>
</defs>
</svg>
